<mxfile host="app.diagrams.net" modified="2024-01-12T12:03:29.160Z" agent="Mozilla/5.0 (Windows NT 10.0; Win64; x64) AppleWebKit/537.36 (KHTML, like Gecko) Chrome/120.0.0.0 Safari/537.36" version="22.1.18" etag="7-hIBvDVBM27kh1xp7ea" type="github">
  <diagram name="Страница — 1" id="3Iw9h6Vz4x-k-8PoEFHg">
    <mxGraphModel>
      <root>
        <mxCell id="0" />
        <mxCell id="1" parent="0" />
      </root>
    </mxGraphModel>
  </diagram>
</mxfile>
